<svg width="37" height="37" viewBox="0 0 37 37" fill="none" xmlns="http://www.w3.org/2000/svg">
<path d="M24.8531 0C18.615 0 13.5563 5.06235 13.5563 11.3049C13.5563 12.0126 13.6218 12.7045 13.746 13.376L0 27.1318V33.9148C0 35.1629 1.0122 36.1758 2.25938 36.1758H4.51875V33.9148H9.03751V29.3928H13.5563V24.8708H18.075L21.0077 21.9361C22.2074 22.3702 23.5043 22.6099 24.8531 22.6099C31.0913 22.6099 36.15 17.5475 36.15 11.3049C36.15 5.06235 31.0913 0 24.8531 0ZM28.2377 11.3095C26.3669 11.3095 24.8486 9.79007 24.8486 7.91797C24.8486 6.04588 26.3669 4.52649 28.2377 4.52649C30.1085 4.52649 31.6268 6.04588 31.6268 7.91797C31.6268 9.79007 30.1085 11.3095 28.2377 11.3095Z" fill="black"/>
</svg>
